<?xml version="1.0" ?><!DOCTYPE svg  PUBLIC '-//W3C//DTD SVG 1.1//EN'  'http://www.w3.org/Graphics/SVG/1.1/DTD/svg11.dtd'><svg enable-background="new 0 0 512 512" height="512px" id="Layer_1" version="1.1" viewBox="0 0 512 512" width="512px" xml:space="preserve" xmlns="http://www.w3.org/2000/svg" xmlns:xlink="http://www.w3.org/1999/xlink"><path d="M473.162,122.544h-55.297c-21.365,0-45.767-16.043-54.236-35.657l-0.278-0.645  c-8.47-19.613-32.87-35.656-54.233-35.656H202.871c-21.366,0-45.764,16.043-54.236,35.656l-0.278,0.645  c-8.467,19.614-32.867,35.657-54.233,35.657H38.839C17.473,122.544,0,140.022,0,161.383v261.192  c0,21.366,17.473,38.839,38.839,38.839h434.323c21.365,0,38.838-17.473,38.838-38.839V161.383  C512,140.022,494.527,122.544,473.162,122.544z M255.994,409.984c-72.312,0-130.949-58.635-130.949-130.948  c0-72.325,58.637-130.955,130.949-130.955c72.325,0,130.961,58.63,130.961,130.955C386.955,351.35,328.319,409.984,255.994,409.984z  " fill="#7F7F7F"/></svg>